<svg xmlns="http://www.w3.org/2000/svg" viewBox="0 0 256 256" width="256" height="256">
  <defs>
    <linearGradient id="mainGrad" x1="0%" y1="0%" x2="100%" y2="100%">
      <stop offset="0%" stop-color="#818cf8"/>
      <stop offset="100%" stop-color="#0ea5e9"/>
    </linearGradient>
    <linearGradient id="topGrad" x1="0%" y1="0%" x2="0%" y2="100%">
      <stop offset="0%" stop-color="#c7d2fe"/>
      <stop offset="100%" stop-color="#818cf8"/>
    </linearGradient>
    <radialGradient id="bgGlow" cx="50%" cy="50%" r="60%">
      <stop offset="0%" stop-color="#111118"/>
      <stop offset="100%" stop-color="#0a0a0f"/>
    </radialGradient>
  </defs>

  <rect width="256" height="256" rx="48" fill="url(#bgGlow)"/>
  <rect x="1" y="1" width="254" height="254" rx="47" fill="none" stroke="url(#mainGrad)" stroke-width="1" opacity="0.3"/>

  <g transform="translate(128, 148)">
    <path d="M -60,60 L 0,0 L 60,60 L 41,60 L 0,19 L -41,60 Z" fill="url(#mainGrad)" opacity="0.4"/>
    <path d="M -60,12 L 0,-48 L 60,12 L 41,12 L 0,-29 L -41,12 Z" fill="url(#mainGrad)" opacity="0.7"/>
    <path d="M -60,-36 L 0,-96 L 60,-36 L 41,-36 L 0,-77 L -41,-36 Z" fill="url(#topGrad)"/>
    <circle cx="0" cy="-112" r="5" fill="#818cf8"/>
    <circle cx="0" cy="-112" r="10" fill="#818cf8" opacity="0.25"/>
  </g>
</svg>
