<svg xmlns="http://www.w3.org/2000/svg" viewBox="0 0 800 300" width="800" height="300">
  <defs>
    <linearGradient id="mainGrad" x1="0%" y1="0%" x2="100%" y2="100%">
      <stop offset="0%" stop-color="#818cf8"/>
      <stop offset="100%" stop-color="#0ea5e9"/>
    </linearGradient>
    <linearGradient id="topGrad" x1="0%" y1="0%" x2="0%" y2="100%">
      <stop offset="0%" stop-color="#c7d2fe"/>
      <stop offset="100%" stop-color="#818cf8"/>
    </linearGradient>
  </defs>

  <g transform="translate(140, 150)">
    <path d="M -42,42 L 0,0 L 42,42 L 29,42 L 0,13 L -29,42 Z" fill="url(#mainGrad)" opacity="0.4"/>
    <path d="M -42,8 L 0,-34 L 42,8 L 29,8 L 0,-21 L -29,8 Z" fill="url(#mainGrad)" opacity="0.7"/>
    <path d="M -42,-26 L 0,-68 L 42,-26 L 29,-26 L 0,-55 L -29,-26 Z" fill="url(#topGrad)"/>
    <circle cx="0" cy="-80" r="3.5" fill="#818cf8"/>
    <circle cx="0" cy="-80" r="7" fill="#818cf8" opacity="0.25"/>
  </g>

  <line x1="230" y1="95" x2="230" y2="205" stroke="url(#mainGrad)" stroke-width="1" opacity="0.35"/>

  <g transform="translate(260, 150)">
    <text x="0" y="0"
          font-family="'Inter', 'Helvetica Neue', Arial, sans-serif"
          font-size="48"
          font-weight="700"
          fill="#FFFFFF"
          letter-spacing="-1.5">Pegasus<tspan fill="url(#mainGrad)">LMK</tspan></text>

    <text x="0" y="28"
          font-family="'Courier New', monospace"
          font-size="11"
          fill="#475569"
          letter-spacing="6">SOFTWARE · ENGINEERING</text>
  </g>
</svg>
