<svg xmlns="http://www.w3.org/2000/svg" viewBox="88 58 545 148" width="545" height="148">
  <defs>
    <linearGradient id="orangeGrad" x1="0%" y1="0%" x2="100%" y2="100%">
      <stop offset="0%" stop-color="#FB923C"/>
      <stop offset="100%" stop-color="#EA580C"/>
    </linearGradient>
    <linearGradient id="orangeBright" x1="0%" y1="0%" x2="0%" y2="100%">
      <stop offset="0%" stop-color="#FDBA74"/>
      <stop offset="100%" stop-color="#EA580C"/>
    </linearGradient>
  </defs>

  <g transform="translate(140, 150)">
    <path d="M -42,42 L 0,0 L 42,42 L 29,42 L 0,13 L -29,42 Z" fill="url(#orangeGrad)" opacity="0.5"/>
    <path d="M -42,8 L 0,-34 L 42,8 L 29,8 L 0,-21 L -29,8 Z" fill="url(#orangeGrad)" opacity="0.75"/>
    <path d="M -42,-26 L 0,-68 L 42,-26 L 29,-26 L 0,-55 L -29,-26 Z" fill="url(#orangeBright)"/>
    <circle cx="0" cy="-80" r="3.5" fill="#FB923C"/>
    <circle cx="0" cy="-80" r="7" fill="#FB923C" opacity="0.25"/>
  </g>

  <line x1="230" y1="95" x2="230" y2="205" stroke="url(#orangeGrad)" stroke-width="1" opacity="0.3"/>

  <g transform="translate(260, 150)">
    <text x="0" y="0"
          font-family="'Inter', 'Helvetica Neue', Arial, sans-serif"
          font-size="48"
          font-weight="700"
          fill="#FFFFFF"
          letter-spacing="-1.5">Pegasus<tspan fill="url(#orangeGrad)">LMK</tspan></text>

    <text x="0" y="28"
          font-family="'Courier New', monospace"
          font-size="11"
          fill="#78716C"
          letter-spacing="6">SOFTWARE · ENGINEERING</text>
  </g>
</svg>
